<svg xmlns="http://www.w3.org/2000/svg" style="display: none;">

<symbol id="icon--hamburger" viewBox="0 0 26 26">
  <path style=" " d="M 0 4 L 0 6 L 26 6 L 26 4 Z M 0 12 L 0 14 L 26 14 L 26 12 Z M 0 20 L 0 22 L 26 22 L 26 20 Z "/>
</symbol>

<symbol id="icon--cross" viewBox="0 0 26 26">
  <line y2="1" x2="25" y1="25" x1="1" stroke-width="2" />
  <line transform="rotate(90 13,13)" y2="1" x2="25" y1="25" x1="1" stroke-width="2" />
</symbol>

<symbol id="icon--fb" viewBox="0 0 155.139 155.139">
  <path d="M89.584 155.14V84.377h23.742l3.562-27.585H89.584v-17.61c0-7.983 2.208-13.424 13.67-13.424l14.595-.007V1.08C115.324.752 106.66 0 96.576 0 75.52 0 61.104 12.853 61.104 36.452v20.34H37.29V84.38h23.814v70.76h28.48z"/>
</symbol>

<symbol id="icon--gplus" viewBox="0 0 96.828 96.827">
  <path d="M62.617 0H39.525C29.235 0 22.112 2.256 15.7 7.552c-5.04 4.35-8.05 10.672-8.05 16.912 0 9.614 7.33 19.83 20.913 19.83 1.306 0 2.752-.133 4.028-.252l-.187.457c-.546 1.307-1.063 2.54-1.063 4.467 0 3.75 1.81 6.063 3.558 8.298l.22.283-.39.027c-5.61.384-16.05 1.1-23.676 5.787-9.007 5.355-9.707 13.145-9.707 15.404 0 8.988 8.376 18.06 27.09 18.06 21.76 0 33.146-12.005 33.146-23.863.003-8.77-5.14-13.1-10.6-17.698l-4.604-3.582c-1.423-1.18-3.195-2.646-3.195-5.364 0-2.673 1.773-4.437 3.337-5.993l.163-.165c4.973-3.917 10.61-8.358 10.61-17.964 0-9.658-6.036-14.65-8.938-17.048h7.663c.094 0 .188-.026.266-.077l6.602-4.15c.188-.12.276-.348.214-.562-.06-.213-.257-.36-.48-.36zM34.614 91.535c-13.264 0-22.176-6.195-22.176-15.416 0-6.022 3.645-10.397 10.824-12.998 5.75-1.935 13.17-2.03 13.244-2.03 1.257 0 1.89 0 2.893.125C48.68 67.822 53.14 71.29 53.14 77.895c0 8.414-7.1 13.64-18.528 13.64zm-.125-50.78c-11.133 0-15.753-14.632-15.753-22.467 0-3.984.906-7.042 2.77-9.35 2.023-2.532 5.487-4.167 8.825-4.167 10.22 0 15.873 13.74 15.873 23.234 0 1.498 0 6.055-3.148 9.22-2.117 2.113-5.56 3.532-8.568 3.532zM94.982 45.223H82.814V33.098c0-.276-.225-.5-.5-.5H77.08c-.276 0-.5.224-.5.5v12.125H64.473c-.276 0-.5.224-.5.5v5.304c0 .275.224.5.5.5H76.58V63.73c0 .275.224.5.5.5h5.234c.275 0 .5-.225.5-.5V51.525h12.168c.276 0 .5-.223.5-.5v-5.302c0-.277-.223-.5-.5-.5z"/>
</symbol>

<symbol id="icon--in" viewBox="0 0 97.395 97.395">
  <path d="M12.5 0h72.394c6.875 0 12.5 5.09 12.5 12.5v72.395c0 7.41-5.625 12.5-12.5 12.5H12.5c-6.876 0-12.5-5.09-12.5-12.5V12.5C0 5.09 5.624 0 12.5 0zM70.95 10.82c-2.412 0-4.383 1.973-4.383 4.386V25.7c0 2.413 1.97 4.386 4.383 4.386h11.008c2.412 0 4.385-1.973 4.385-4.385V15.207c0-2.413-1.972-4.385-4.384-4.385H70.948zm15.44 30.368h-8.573c.81 2.648 1.25 5.453 1.25 8.355 0 16.2-13.556 29.332-30.275 29.332-16.718 0-30.272-13.132-30.272-29.332 0-2.904.438-5.708 1.25-8.355h-8.945v41.14c0 2.13 1.742 3.873 3.872 3.873h67.822c2.13 0 3.872-1.74 3.872-3.87V41.187h-.003zm-37.6-11.655c-10.8 0-19.56 8.485-19.56 18.953S37.99 67.44 48.79 67.44c10.804 0 19.563-8.486 19.563-18.954s-8.757-18.953-19.56-18.953z"/>
</symbol>

<symbol id="icon--tw" viewBox="0 0 310 310">
  <path d="M302.973 57.388c-4.87 2.16-9.877 3.983-14.993 5.463 6.057-6.85 10.675-14.91 13.494-23.73.632-1.976-.023-4.14-1.648-5.433-1.623-1.294-3.878-1.45-5.665-.39-10.864 6.444-22.586 11.075-34.877 13.783-12.38-12.098-29.197-18.983-46.58-18.983-36.696 0-66.55 29.853-66.55 66.547 0 2.89.183 5.764.545 8.598-45.535-3.998-87.868-26.38-116.938-62.038-1.036-1.27-2.632-1.956-4.266-1.825-1.635.127-3.104 1.05-3.93 2.466-5.896 10.117-9.013 21.688-9.013 33.46 0 16.036 5.726 31.25 15.84 43.138-3.076-1.065-6.06-2.396-8.908-3.977-1.53-.85-3.395-.838-4.914.033-1.52.87-2.473 2.473-2.513 4.224-.007.295-.007.59-.007.89 0 23.934 12.882 45.483 32.577 57.228-1.692-.17-3.383-.414-5.063-.735-1.732-.33-3.513.276-4.68 1.597-1.17 1.32-1.558 3.16-1.02 4.84 7.29 22.76 26.06 39.5 48.75 44.605-18.82 11.786-40.34 17.96-62.932 17.96-4.714 0-9.455-.277-14.095-.826-2.305-.274-4.51 1.087-5.294 3.28-.784 2.192.048 4.637 2.01 5.894 29.022 18.61 62.58 28.445 97.046 28.445 67.754 0 110.14-31.95 133.764-58.753 29.46-33.42 46.356-77.658 46.356-121.367 0-1.826-.028-3.67-.084-5.508 11.623-8.757 21.63-19.355 29.773-31.536 1.237-1.85 1.103-4.296-.33-6-1.43-1.703-3.816-2.254-5.852-1.352z"/>
</symbol>

<symbol id="icon--vk" viewBox="0 0 304.36 304.36">
  <path d="M261.945 175.576c10.096 9.857 20.752 19.13 29.807 29.982 4 4.822 7.787 9.798 10.684 15.394 4.105 7.955.387 16.71-6.746 17.184l-44.34-.02c-11.436.95-20.56-3.655-28.23-11.474-6.14-6.253-11.824-12.908-17.727-19.372-2.42-2.642-4.953-5.128-7.98-7.093-6.052-3.93-11.306-2.726-14.765 3.587-3.523 6.42-4.322 13.53-4.668 20.687-.475 10.442-3.63 13.187-14.12 13.665-22.413 1.057-43.685-2.334-63.446-13.64-17.422-9.97-30.932-24.04-42.69-39.972-22.896-31.02-40.43-65.108-56.187-100.15C-2.01 76.458.584 72.22 9.295 72.07c14.465-.28 28.928-.26 43.41-.02 5.88.086 9.77 3.458 12.04 9.012 7.827 19.243 17.403 37.55 29.423 54.52 3.2 4.52 6.465 9.037 11.113 12.217 5.143 3.52 9.058 2.353 11.477-3.375 1.535-3.632 2.207-7.544 2.553-11.434 1.146-13.382 1.297-26.742-.713-40.078-1.234-8.323-5.922-13.71-14.227-15.286-4.238-.803-3.607-2.38-1.555-4.8 3.564-4.17 6.916-6.768 13.598-6.768h50.11c7.89 1.557 9.642 5.1 10.722 13.04l.043 55.662c-.086 3.073 1.535 12.192 7.07 14.226 4.43 1.448 7.35-2.096 10.008-4.905 11.998-12.733 20.56-27.782 28.21-43.365 3.396-6.852 6.315-13.968 9.144-21.078 2.096-5.276 5.385-7.872 11.328-7.757l48.23.043c1.43 0 2.876.02 4.26.258 8.128 1.386 10.355 4.882 7.845 12.818-3.955 12.45-11.65 22.827-19.174 33.25-8.044 11.13-16.646 21.878-24.622 33.073-7.328 10.224-6.746 15.377 2.357 24.256zm0 0" fill-rule="evenodd" clip-rule="evenodd"/>
</symbol>

<symbol id="icon--yt" viewBox="0 0 310 310">
  <path d="M297.917 64.645c-11.19-13.302-31.85-18.728-71.306-18.728H83.387c-40.36 0-61.37 5.776-72.517 19.938C0 79.663 0 100.008 0 128.165v53.67c0 54.55 12.896 82.248 83.386 82.248h143.226c34.216 0 53.176-4.788 65.442-16.527 12.58-12.038 17.946-31.693 17.946-65.72v-53.67c0-29.695-.84-50.16-12.083-63.52zM199.02 162.41l-65.037 33.99c-1.454.76-3.044 1.138-4.632 1.138-1.797 0-3.59-.484-5.18-1.446-2.992-1.813-4.82-5.056-4.82-8.554v-67.764c0-3.492 1.823-6.732 4.81-8.546 2.986-1.814 6.7-1.938 9.8-.328l65.038 33.772c3.31 1.718 5.387 5.134 5.392 8.86.004 3.73-2.065 7.152-5.37 8.878z"/>
</symbol>

<symbol id="icon--marker" viewBox="0 0 512 512">
  <path d="M256 0C153.755 0 70.573 83.182 70.573 185.426c0 126.888 165.94 313.167 173.004 321.035 6.636 7.392 18.222 7.38 24.846 0 7.065-7.867 173.004-194.146 173.004-321.034C441.425 83.182 358.244 0 256 0zm0 469.73c-55.847-66.34-152.035-197.218-152.035-284.302 0-83.834 68.202-152.036 152.035-152.036s152.035 68.202 152.035 152.035c0 87.088-96.174 217.943-152.035 284.302z"/>
  <path d="M256 92.134c-51.442 0-93.292 41.85-93.292 93.293S204.558 278.72 256 278.72s93.29-41.85 93.29-93.293S307.44 92.134 256 92.134zm0 153.194c-33.03 0-59.9-26.87-59.9-59.9s26.87-59.902 59.9-59.902 59.9 26.87 59.9 59.9-26.87 59.902-59.9 59.902z"/>
</symbol>

<symbol id="icon--tel" viewBox="0 0 463.009 463.009">
  <path d="M462.692 381.085c-1.472-11.126-7.895-20.72-17.62-26.318L330.846 289c-13.99-8.055-31.738-5.71-43.157 5.708l-22.5 22.5c-5.987 5.987-15.46 6.517-22.028 1.23-17.737-14.272-35.2-29.98-51.906-46.685-16.705-16.705-32.412-34.168-46.685-51.906-5.286-6.57-4.757-16.04 1.232-22.03L168.3 175.32c11.418-11.418 13.766-29.164 5.71-43.157L108.24 17.937C102.642 8.21 93.05 1.79 81.924.317 70.797-1.158 59.864 2.553 51.928 10.49l-33.9 33.9c-23.662 23.663-24.042 66.945-1.07 121.876 22.087 52.818 63.307 110.962 116.064 163.72 52.76 52.76 110.903 93.98 163.722 116.067 27.04 11.307 51.253 16.957 71.697 16.956 21.09 0 38.164-6.014 50.18-18.028l33.9-33.902c7.935-7.936 11.643-18.87 10.172-29.995zM323.362 302l114.226 65.766c5.65 3.252 9.38 8.824 10.233 15.286.72 5.423-.69 10.763-3.884 15.066L292.13 311.48l6.166-6.165c6.63-6.63 16.94-7.994 25.066-3.316zM79.956 15.187c6.463.855 12.034 4.585 15.286 10.234l65.767 114.226c4.68 8.127 3.315 18.435-3.316 25.065l-5.663 5.663L64.918 19.073c3.56-2.637 7.82-4.07 12.26-4.07.92 0 1.85.062 2.78.185zM408.01 434.375c-18.797 18.798-57.243 18.01-105.48-2.162-51.06-21.352-107.49-61.424-158.9-112.833-51.41-51.41-91.482-107.842-112.834-158.9-20.173-48.238-20.96-86.684-2.162-105.483L53.8 29.83l87.246 151.53-5.85 5.852c-11.416 11.416-12.41 29.488-2.312 42.04 14.61 18.156 30.68 36.024 47.764 53.108 17.086 17.085 34.954 33.156 53.11 47.765 12.55 10.098 30.62 9.105 42.04-2.312l5.337-5.338 152.016 86.76-25.14 25.14z"/>
</symbol>

<symbol id="icon--paperplane" viewBox="0 0 469.038 469.038">
  <path fill="#000000" d="M465.023 4.08c-3.9-3.9-9.9-5-14.9-2.8l-442 193.7c-4.7 2.1-7.8 6.6-8.1 11.7s2.4 9.9 6.8 12.4l154.1 87.4 91.5 155.7c2.4 4.1 6.9 6.7 11.6 6.7h.8c5.1-.3 9.5-3.4 11.6-8.1l191.5-441.8c2.2-5.1 1.1-11-2.9-14.9zm-70.3 50.9l-226.2 224.7-124.9-70.8 351.1-153.9zm-132.5 370.6l-74.5-126.9 227.5-226-153 352.9z"/>
</symbol>

<symbol id="icon--menuclosed" viewBox="0 0 44 32">
  <path d="M0 6h28v6H0V6zm0 8h28v6H0v-6zm0 8h28v6H0v-6zM31 14l6 6 6-6z"/>
</symbol>

<symbol id="icon--menuopened" viewBox="0 0 44 32">
  <path d="M0 6h28v6H0V6zm0 8h28v6H0v-6zm0 8h28v6H0v-6zM31 20l6-6 6 6z"/>
</symbol>

<symbol id="icon--play" viewBox="0 0 104 104">
  <ellipse ry="50" rx="50" cy="52" cx="52" stroke-width="3" fill="transparent" />
  <path transform="rotate(90 58.5,52)" d="m36.785708,71.000002l21.714289,-38.000006l21.714289,38.000006l-43.428578,0z" stroke-width="3" fill="transparent" />
</symbol>

</svg>



